<svg width="58" height="58" viewBox="0 0 58 58" fill="none" xmlns="http://www.w3.org/2000/svg">
<path opacity="0.4" fill-rule="evenodd" clip-rule="evenodd" d="M50.1458 4.83333C50.1458 4.20517 49.8206 3.62179 49.2862 3.29152C48.7519 2.96129 48.0847 2.93125 47.5228 3.21219C46.6767 3.6352 45.9428 4.03088 45.2668 4.39534C44.0831 5.03358 43.0771 5.57602 41.9572 6.00182L41.9057 6.02175C41.6781 6.11028 41.4884 6.18415 39.613 6.51553C37.7677 6.84166 36.8252 6.83081 34.6693 6.80164C33.7372 6.78902 32.6779 6.76036 31.5909 6.73095C30.0295 6.6887 28.4106 6.64489 27.0282 6.64489H26.9214C23.4056 6.64487 20.6201 6.64487 18.4029 6.8839C16.1297 7.129 14.2412 7.64251 12.615 8.81624C11.6189 9.53527 10.7446 10.4096 10.0255 11.4057C8.85178 13.0319 8.33828 14.9205 8.09318 17.1937C7.85413 19.4108 7.85415 22.1963 7.85418 25.7121V46.7521C7.84792 46.8758 7.84473 47.0001 7.84473 47.1252C7.84473 51.7967 11.6317 55.5836 16.3031 55.5836H47.7009C49.0356 55.5836 50.1176 54.5016 50.1176 53.1669C50.1176 51.8324 49.0356 50.7502 47.7009 50.7502H45.9167V41.5253C47.378 40.3346 48.5375 38.7914 49.272 37.0183C49.7466 35.8723 49.9513 34.6448 50.0497 33.2045C50.1458 31.7946 50.1458 30.0544 50.1458 27.8586V4.83333ZM41.0833 50.7502V44.7086H15.0947C13.76 44.7086 12.6781 45.7908 12.6781 47.1252C12.6781 49.1274 14.301 50.7502 16.3031 50.7502H41.0833Z" fill="white"/>
<path d="M26.7693 37.091C23.71 38.1237 21.1605 37.091 19.6309 33.9077" stroke="#141B34" stroke-width="1.5" stroke-linecap="round" stroke-linejoin="round"/>
<path d="M26.7693 38.3692V35.4763C26.7693 34.9424 26.9334 34.4784 27.1979 34.0593C27.3794 33.7717 27.2551 33.3637 26.9273 33.2736C24.2119 32.5271 22.3077 31.3269 22.3077 27.3457C22.3077 26.3107 22.6469 25.3376 23.243 24.4906C23.3913 24.2799 23.4655 24.1745 23.4833 24.079C23.5012 23.9836 23.4702 23.859 23.4082 23.6099C23.1558 22.5958 23.1721 21.5191 23.5509 20.5483C23.5509 20.5483 24.3337 20.2932 26.1152 21.4062C26.5219 21.6603 26.7253 21.7874 26.9045 21.8158C27.0835 21.8442 27.323 21.7847 27.8019 21.6656C28.4569 21.5028 29.1318 21.4154 29.8924 21.4154C30.653 21.4154 31.3278 21.5028 31.9828 21.6656C32.4617 21.7847 32.7012 21.8442 32.8802 21.8158C33.0594 21.7874 33.2628 21.6603 33.6695 21.4062C35.4511 20.2932 36.2338 20.5483 36.2338 20.5483C36.6126 21.5191 36.6289 22.5958 36.3766 23.6099C36.3146 23.859 36.2835 23.9836 36.3014 24.079C36.3192 24.1745 36.3934 24.2799 36.5417 24.4906C37.1378 25.3376 37.477 26.3107 37.477 27.3457C37.477 31.3269 35.5729 32.5271 32.8574 33.2736C32.5296 33.3637 32.4053 33.7717 32.5868 34.0593C32.8513 34.4784 33.0154 34.9424 33.0154 35.4763V38.3692" stroke="#141B34" stroke-width="1.5" stroke-linecap="round" stroke-linejoin="round"/>
</svg>
