<svg width="24" height="24" viewBox="0 0 24 24" fill="none" xmlns="http://www.w3.org/2000/svg">
<path opacity="0.4" d="M1.25 11.9999C1.25 6.06282 6.06294 1.24988 12 1.24988C17.9371 1.24988 22.75 6.06282 22.75 11.9999C22.75 17.9369 17.9371 22.7499 12 22.7499C6.06294 22.7499 1.25 17.9369 1.25 11.9999Z" fill="#141B34"/>
<path d="M14.0593 22.5527C13.3928 22.682 12.7043 22.7498 12 22.7498C11.296 22.7498 10.6079 22.6821 9.94166 22.5529V20.5107C9.94166 20.246 9.94166 20.1137 9.86894 20.0293C9.79621 19.9449 9.65383 19.9236 9.36905 19.8811C9.07311 19.8368 8.7844 19.7674 8.50437 19.6716C7.4374 19.3064 6.55702 18.578 5.91481 17.5269C5.69884 17.1735 5.81029 16.7118 6.16375 16.4959C6.5172 16.2799 6.97881 16.3914 7.19478 16.7448C7.6721 17.526 8.28444 18.0109 8.99007 18.2524C9.01502 18.2609 9.04252 18.2708 9.07197 18.2814C9.30172 18.364 9.65019 18.4893 9.82829 18.3478C9.9684 18.2365 9.95631 18.0074 9.94634 17.8185C9.94394 17.773 9.94166 17.7299 9.94166 17.6912C9.94166 17.3323 10.0499 17.0203 10.2243 16.7384C10.3439 16.5451 10.262 16.2707 10.0458 16.2101C8.25575 15.7082 7.00049 14.9012 7.00049 12.2242C7.00049 11.5282 7.22405 10.8739 7.61702 10.3044C7.71476 10.1627 7.76242 10.0984 7.77545 10.0277C7.7885 9.95693 7.76682 9.87975 7.72592 9.71212C7.58215 9.12296 7.57066 8.50227 7.7313 7.92329C7.76293 7.80929 7.77874 7.75229 7.86956 7.69043C7.96037 7.62857 8.00763 7.63351 8.10215 7.6434C8.36789 7.6712 8.82802 7.79547 9.51048 8.23034C9.77862 8.4012 9.91269 8.48663 10.0308 8.50574C10.1488 8.52485 10.3067 8.48483 10.6224 8.40477C11.0542 8.29529 11.4991 8.23652 12.0005 8.23652C12.5019 8.23652 12.9468 8.29529 13.3785 8.40477C13.6943 8.48482 13.8521 8.52485 13.9702 8.50574C14.0883 8.48663 14.2224 8.4012 14.4905 8.23034C15.173 7.79547 15.6331 7.6712 15.8988 7.6434C15.9933 7.63351 16.0406 7.62857 16.1314 7.69043C16.2222 7.75229 16.2381 7.80929 16.2697 7.92329C16.4303 8.50227 16.4188 9.12294 16.2751 9.71211C16.2342 9.87974 16.2125 9.95693 16.2255 10.0277C16.2386 10.0984 16.2862 10.1627 16.3839 10.3043C16.7769 10.8738 17.0005 11.5282 17.0005 12.2242C17.0005 14.9012 15.7452 15.7082 13.9551 16.2101C13.739 16.2707 13.6571 16.5451 13.7767 16.7384C13.9511 17.0203 14.0593 17.3323 14.0593 17.6912V22.5527Z" fill="#141B34"/>
</svg>
